# AST/ASF file generated using VICON BodyLanguage
# -----------------------------------------------
:version 1.10
:name VICON
:units
  mass 1.0
  length 0.45
  angle deg
:documentation
   .ast/.asf automatically generated from VICON data using
   VICON BodyBuilder and BodyLanguage model FoxedUp or BRILLIANT.MOD
:root
   order TX TY TZ RX RY RZ
   axis XYZ
   position 0 0 0  
   orientation 0 0 0 
:bonedata
  begin
     id 1 
     name lhipjoint
     direction 0.588788 -0.725889 0.355548 
     length 2.37778 
     axis 0 0 0  XYZ
  end
  begin
     id 2 
     name lfemur
     direction 0.34202 -0.939693 0  
     length 6.86393  
     axis 0 0 20  XYZ
    dof rx ry rz
    limits (-160.0 20.0)
           (-70.0 70.0)
           (-60.0 70.0)
  end
  begin
     id 3 
     name ltibia
     direction 0.34202 -0.939693 0   
     length 7.32851   
     axis 0 0 20   XYZ
    dof rx
    limits (-10.0 170.0)
  end
  begin
     id 4 
     name lfoot
     direction 0.0626533 -0.172138 0.983078   
     length 1.98929   
     axis -90 7.62852e-016 20   XYZ
    dof rx rz
    limits (-45.0 90.0)
           (-70.0 20.0)
  end
  begin
     id 5 
     name ltoes
     direction 1.53647e-011 -4.21734e-011 1   
     length 1.00479   
     axis -90 7.62852e-016 20   XYZ
    dof rx
    limits (-90.0 20.0)
  end
  begin
     id 6 
     name rhipjoint
     direction -0.59141 -0.724168 0.354705   
     length 2.38343  
     axis 0 0 0  XYZ 
  end
  begin
     id 7 
     name rfemur
     direction -0.34202 -0.939693 0   
     length 6.95589   
     axis 0 0 -20   XYZ
    dof rx ry rz
    limits (-160.0 20.0)
           (-70.0 70.0)
           (-70.0 60.0)
  end
  begin
     id 8 
     name rtibia
     direction -0.34202 -0.939693 0   
     length 7.32327   
     axis 0 0 -20   XYZ
    dof rx
    limits (-10.0 170.0)
 end
 begin
     id 9 
     name rfoot
     direction -0.0660461 -0.18146 0.981178   
     length 1.85272  
     axis -90 -7.62852e-016 -20   XYZ
    dof rx rz
    limits (-45.0 90.0)
           (-20.0 70.0)
  end
  begin
     id 10 
     name rtoes
     direction -1.53586e-011 -4.21988e-011 1   
     length 0.93746   
     axis -90 -7.62852e-016 -20   XYZ
    dof rx
    limits (-90.0 20.0)
  end
  begin
     id 11 
     name lowerback
     direction -0.0107982 0.991059 0.13299   
     length 1.98691   
     axis 0 0 0   XYZ
    dof rx ry rz
    limits (-20.0 45.0)
           (-30.0 30.0)
           (-30.0 30.0)
  end
  begin
     id 12 
     name upperback
     direction 0.0076296 0.999916 0.0104576   
     length 1.99501   
     axis 0 0 0   XYZ
    dof rx ry rz
    limits (-20.0 45.0)
           (-30.0 30.0)
           (-30.0 30.0)
  end
  begin
     id 13 
     name thorax
     direction 0.01176 0.998615 -0.0512909   
     length 2.03144   
     axis 0 0 0   XYZ
    dof rx ry rz
    limits (-20.0 45.0)
           (-30.0 30.0)
           (-30.0 30.0)
  end
  begin
     id 14 
     name lowerneck
     direction -0.0171909 0.999644 0.0204011   
     length 1.71818   
     axis 0 0 0   XYZ
    dof rx ry rz
    limits (-20.0 45.0)
           (-30.0 30.0)
           (-30.0 30.0)
  end
  begin
     id 15 
     name upperneck
     direction 0.0250902 0.997482 -0.0663316   
     length 1.66199   
     axis 0 0 0   XYZ
    dof rx ry rz
    limits (-20.0 45.0)
           (-30.0 30.0)
           (-30.0 30.0)
  end
  begin
     id 16
     name head
     direction 0.00881535 0.99956 -0.0283365  
     length 1.81545  
     axis 0 0 0   XYZ
    dof rx ry rz
    limits (-20.0 45.0)
           (-30.0 30.0)
           (-30.0 30.0)
  end
  begin
     id 17 
     name lclavicle
     direction 0.840411 0.486876 -0.238035  
     length 3.30409  
     axis 0 0 0   XYZ
    dof ry rz
    limits (-20.0 10.0)
           (0.0 20.0)
  end
  begin
     id 18 
     name lhumerus
     direction 1 -4.48977e-011 -5.16239e-027   
     length 4.62672   
     axis 180 -30 -90   XYZ
    dof rx ry rz
    limits (-60.0 90.0)
           (-90.0 90.0)
           (-90.0 90.0)
  end
  begin
     id 19
     name lradius
     direction 1 -4.48977e-011 -8.71171e-027   
     length 3.11018   
     axis 180 -30 -90   XYZ
    dof rx
    limits (-10.0 170.0)
  end
  begin
     id 20
     name lwrist
     direction 1 -4.48912e-011 -1.03764e-026   
     length 1.55509   
     axis 9.09556e-015 90 90   XYZ
    dof ry
    limits (-180.0 0.0)
 end
  begin
     id 21 
     name lhand
     direction 1 -4.49072e-011 -2.07528e-026   
     length 0.743834   
     axis 1.3242e-014 90 90   XYZ
    dof rx rz
    limits (-90.0 90.0)
           (-45.0 45.0)
  end
  begin
     id 22 
     name lfingers
     direction 1 -4.48909e-011 -4.15056e-026   
     length 0.599698   
     axis 2.64841e-014 90 90   XYZ
    dof rx
    limits (0.0 90.0)
  end
  begin
     id 23
     name lthumb
     direction 0.707107 -6.35013e-011 0.707107   
     length 0.86105   
     axis -90 45 2.85299e-015   XYZ
    dof rx rz
    limits (-45.0 45.0)
           (-45.0 45.0)
  end
  begin
     id 24 
     name rclavicle
     direction -0.835208 0.500237 -0.228452   
     length 3.2716  
     axis 0 0 0   XYZ 
    dof ry rz
    limits (-10.0 20.0)
           (-20.0 0.0)
  end
  begin
     id 25 
     name rhumerus
     direction -1 -4.48978e-011 -5.1953e-028  
     length 4.55919   
     axis 180 30 90   XYZ
    dof rx ry rz
    limits (-90.0 60.0)
           (-90.0 90.0)
           (-90.0 90.0)
  end
  begin
     id 26 
     name rradius
     direction -1 -4.48961e-011 -5.99546e-027   
     length 3.22748   
     axis 180 30 90   XYZ
    dof rx
    limits (-10.0 170.0)
  end
  begin
     id 27 
     name rwrist
     direction -1 -4.48986e-011 -1.03764e-026   
     length 1.61374   
     axis 9.09556e-015 -90 -90   XYZ
    dof ry
    limits (-180.0 0.0)
  end
  begin
     id 28
     name rhand
     direction -1 -4.4899e-011 -2.07528e-026   
     length 0.700882   
     axis 1.3242e-014 -90 -90   XYZ
    dof rx rz
    limits (-90.0 90.0)
           (-45.0 45.0)
  end
  begin
     id 29
     name rfingers
     direction -1 -4.48991e-011 -4.15056e-026   
     length 0.565069   
     axis 2.64841e-014 -90 -90   XYZ
    dof rx
    limits (0.0 90.0)
  end
  begin
     id 30
     name rthumb
     direction -0.707107 -6.34804e-011 0.707107   
     length 0.811329   
     axis -90 -45 -2.85299e-015   XYZ
    dof rx rz
    limits (-45.0 45.0)
           (-45.0 45.0)
  end
:hierarchy
  begin
    root lhipjoint rhipjoint lowerback
    lhipjoint lfemur
    lfemur ltibia
    ltibia lfoot
    lfoot ltoes
    rhipjoint rfemur
    rfemur rtibia
    rtibia rfoot
    rfoot rtoes
    lowerback upperback
    upperback thorax
    thorax lowerneck lclavicle rclavicle
    lowerneck upperneck
    upperneck head
    lclavicle lhumerus
    lhumerus lradius
    lradius lwrist
    lwrist lhand lthumb
    lhand lfingers
    rclavicle rhumerus
    rhumerus rradius
    rradius rwrist
    rwrist rhand rthumb
    rhand rfingers
  end

#!OML:ASF F:\VICON\USERDATA\INSTALL\SteveWalk\SteveWalk.ASF
:FULLY-SPECIFIED
:DEGREES
63
root -0.163969 16.1991 -29.0024 17.4513 4.77118 -1.57895
lowerback -13.8771 -1.90699 3.46793
upperback -4.98939 -3.09606 3.42062
thorax 2.52009 -1.53808 1.13318
lowerneck -4.41661 -0.881433 0.797199
upperneck 5.51328 -0.966811 -4.36364
head 2.49316 -0.599418 -1.57349
rclavicle -9.21864e-015 1.03368e-014
rhumerus -83.8522 -44.1825 -9.02439
rradius 12.1683
rwrist 44.1679
rhand -14.3688 -37.5611
rfingers 7.12502
rthumb 11.7735 -67.2102
lclavicle -9.21864e-015 1.03368e-014
lhumerus -29.7158 0.00449441 84.8827
lradius 44.3177
lwrist 12.041
lhand -23.1992 -17.5404
lfingers 7.12502
lthumb 3.25069 12.4145
rfemur -44.6587 -0.629731 25.1948
rtibia 39.6772
rfoot -14.9672 4.54197
rtoes -15.9992
lfemur -21.7681 1.86784 -16.8137
ltibia 67.9456
lfoot 9.30982 -5.85473
ltoes -20.4304
64
root -0.168518 16.2449 -28.7772 17.1167 5.25899 -1.36281
lowerback -13.8839 -1.99616 3.12428
upperback -4.74922 -3.17922 3.3998
thorax 2.79417 -1.57299 1.28482
lowerneck -3.75526 -0.811674 0.490319
upperneck 5.00804 -0.891402 -4.06702
head 2.20581 -0.546762 -1.40556
rclavicle 1.81391e-015 2.38542e-014
rhumerus -79.4168 -44.7802 -15.3002
rradius 12.3819
rwrist 41.3107
rhand -14.7887 -38.3386
rfingers 7.12502
rthumb 11.3685 -68.0104
lclavicle 1.81391e-015 2.38542e-014
lhumerus -29.5404 0.259101 85.3092
lradius 42.3922
lwrist 10.9548
lhand -22.8508 -17.6953
lfingers 7.12502
lthumb 3.58721 12.2543
rfemur -43.1525 -1.10548 25.1426
rtibia 39.4638
rfoot -15.9381 4.25352
rtoes -15.1692
lfemur -23.2329 1.6062 -16.9214
ltibia 69.5279
lfoot 7.56566 -4.53911
ltoes -18.9359
65
root -0.174088 16.2836 -28.562 17.1001 5.23377 -1.24838
lowerback -13.9108 -1.90854 2.73646
upperback -4.73253 -3.01445 3.41771
thorax 2.8475 -1.48903 1.54579
lowerneck -4.55771 -0.954328 0.63686
upperneck 5.91985 -1.04571 -4.24724
head 2.65316 -0.644474 -1.51782
rclavicle -3.35449e-015 -1.90833e-014
rhumerus -75.9229 -45.3096 -19.9349
rradius 12.5102
rwrist 39.5192
rhand -15.3589 -38.5867
rfingers 7.12502
rthumb 10.8186 -68.288
lclavicle -3.35449e-015 -1.90833e-014
lhumerus -29.7899 0.554405 85.7486
lradius 40.7482
lwrist 9.85402
lhand -22.6936 -17.4537
lfingers 7.12502
lthumb 3.73897 12.4933
rfemur -42.0648 -1.08907 25.0809
rtibia 39.163
rfoot -16.676 4.10966
rtoes -14.5052
lfemur -25.0204 1.76262 -17.0944
ltibia 70.8338
lfoot 6.21199 -3.16394
ltoes -17.6803
66
root -0.178021 16.3231 -28.3476 17.2412 5.13497 -1.16768
lowerback -14.0163 -1.74314 2.43601
upperback -4.73596 -2.75772 3.35883
thorax 2.90989 -1.36004 1.69101
lowerneck -4.50035 -0.948948 0.697809
upperneck 6.02653 -1.03775 -4.27237
head 2.67845 -0.640419 -1.5374
rclavicle -2.20899e-014 6.36111e-015
rhumerus -72.5118 -45.7347 -24.4079
rradius 12.6837
rwrist 37.3154
rhand -15.8219 -37.7049
rfingers 7.12502
rthumb 10.372 -67.4291
lclavicle -2.20899e-014 6.36111e-015
lhumerus -29.9679 0.850519 86.102
lradius 39.0379
lwrist 8.66912
lhand -22.4568 -17.434
lfingers 7.12502
lthumb 3.9677 12.5088
rfemur -41.1206 -1.11914 25.0819
rtibia 38.7798
rfoot -17.3666 4.0178
rtoes -14.5384
lfemur -26.8414 1.98781 -17.2632
ltibia 71.7968
lfoot 5.43829 -1.85236
ltoes -15.0986
67
root -0.181523 16.359 -28.1334 17.2892 5.15786 -1.12664
lowerback -14.2467 -1.68236 2.23659
upperback -4.81954 -2.65551 3.34625
thorax 2.9534 -1.30804 1.80167
lowerneck -4.78985 -1.05684 0.970985
upperneck 6.76191 -1.15376 -4.59612
head 2.97827 -0.71348 -1.71308
rclavicle 7.95139e-016 0
rhumerus -66.6472 -44.2749 -32.4556
rradius 13.2471
rwrist 32.4793
rhand -16.0965 -37.4499
rfingers 7.12502
rthumb 10.1071 -67.1872
lclavicle 7.95139e-016 0
lhumerus -30.505 1.37631 86.362
lradius 37.3376
lwrist 7.49927
lhand -22.0493 -17.5329
lfingers 7.12502
lthumb 4.36115 12.4022
rfemur -40.0288 -1.21191 25.1248
rtibia 38.3497
rfoot -18.0229 3.80048
rtoes -14.5476
lfemur -28.5132 2.1112 -17.3729
ltibia 72.5169
lfoot 4.71376 -0.621197
ltoes -10.9001
68
root -0.185467 16.3866 -27.9245 17.1861 5.02274 -1.0563
lowerback -14.3363 -1.58355 2.001
upperback -4.67706 -2.49993 3.28671
thorax 3.15628 -1.22908 1.89308
lowerneck -4.97487 -1.05908 1.05966
upperneck 6.85302 -1.15489 -4.66357
head 3.04445 -0.717087 -1.75579
rclavicle 2.28105e-014 -2.62396e-014
rhumerus -61.486 -43.1345 -39.2677
rradius 13.7458
rwrist 28.8888
rhand -16.2081 -38.0692
rfingers 7.12502
rthumb 9.99942 -67.8117
lclavicle 2.28105e-014 -2.62396e-014
lhumerus -30.8211 1.92324 86.5009
lradius 35.8694
lwrist 6.31722
lhand -21.5341 -17.0514
lfingers 7.12502
lthumb 4.85862 12.8729
rfemur -38.8023 -1.06766 25.0463
rtibia 37.9177
rfoot -18.5703 3.56059
rtoes -14.3201
lfemur -30.0107 2.38643 -17.6113
ltibia 73.0018
lfoot 3.57182 0.22067
ltoes -8.79148
69
root -0.193326 16.4103 -27.7168 17.089 4.92657 -0.909661
lowerback -14.3634 -1.56583 1.62025
upperback -4.48705 -2.43207 3.27356
thorax 3.38482 -1.19442 2.10197
lowerneck -5.34408 -1.00506 0.861057
upperneck 6.97133 -1.06919 -4.54841
head 3.15838 -0.680875 -1.68623
rclavicle 1.11816e-014 8.74653e-015
rhumerus -56.8728 -42.1151 -44.8884
rradius 14.1274
rwrist 26.3796
rhand -16.2239 -38.1764
rfingers 7.12502
rthumb 9.98418 -67.9196
lclavicle 1.11816e-014 8.74653e-015
lhumerus -31.1235 2.71736 86.6151
lradius 34.3995
lwrist 5.0885
lhand -20.9758 -15.7559
lfingers 7.12502
lthumb 5.39767 14.1554
rfemur -37.6022 -0.874219 24.8844
rtibia 37.5253
rfoot -19.1198 3.28753
rtoes -14.1454
lfemur -31.4377 2.64301 -17.8977
ltibia 73.2888
lfoot 2.28773 0.817028
ltoes -7.84659
70
root -0.210015 16.4335 -27.5075 17.014 5.05425 -0.778809
lowerback -14.4048 -1.5664 1.1719
upperback -4.92463 -2.35127 3.21449
thorax 2.96034 -1.15338 2.31202
lowerneck -3.43916 -1.08506 0.655722
upperneck 6.85943 -1.19363 -4.28969
head 2.75579 -0.717508 -1.53947
rclavicle 2.39039e-014 -1.03368e-014
rhumerus -52.8346 -38.2621 -51.6036
rradius 15.2447
rwrist 21.0874
rhand -16.3883 -38.4219
rfingers 7.12502
rthumb 9.82555 -68.1727
lclavicle 2.39039e-014 -1.03368e-014
lhumerus -32.7996 2.95763 86.6932
lradius 32.9844
lwrist 4.21393
lhand -20.6411 -15.4859
lfingers 7.12502
lthumb 5.72085 14.4169
rfemur -36.4233 -0.571285 24.7502
rtibia 37.1342
rfoot -19.6049 2.86542
rtoes -13.2923
lfemur -32.8238 2.76235 -18.0249
ltibia 73.3313
lfoot 1.07867 1.2495
ltoes -7.48071
71
root -0.207458 16.4441 -27.3208 17.4817 4.06554 -0.966732
lowerback -14.5534 -1.09526 1.25835
upperback -5.05273 -1.7372 3.10599
thorax 2.87837 -0.848916 2.25138
lowerneck -3.96011 -1.11913 0.484169
upperneck 7.56562 -1.21912 -4.04864
head 3.09356 -0.739371 -1.44962
rclavicle -3.68746e-014 4.05521e-014
rhumerus -48.5458 -34.969 -57.9457
rradius 16.4493
rwrist 16.1367
rhand -16.6368 -38.8881
rfingers 7.12502
rthumb 9.58576 -68.65
lclavicle -3.68746e-014 4.05521e-014
lhumerus -33.2506 3.28166 86.7097
lradius 31.4981
lwrist 3.33333
lhand -20.7686 -16.7014
lfingers 7.12502
lthumb 5.59772 13.2047
rfemur -36.1368 0.0995581 24.7555
rtibia 36.8053
rfoot -19.8956 3.51622
rtoes -11.7727
lfemur -34.8944 3.77749 -18.3459
ltibia 73.2959
lfoot -0.160135 1.83417
ltoes -7.77795
72
root -0.19575 16.4701 -27.1038 17.232 4.45042 -0.85076
lowerback -14.5242 -1.1129 1.31845
upperback -4.98572 -1.76358 2.96078
thorax 2.92772 -0.862707 2.06016
lowerneck -4.06002 -1.15335 0.418678
upperneck 8.06224 -1.25128 -3.95509
head 3.28265 -0.759858 -1.41793
rclavicle -5.50385e-015 -3.97569e-015
rhumerus -45.4419 -32.1613 -62.4877
rradius 17.4945
rwrist 12.6189
rhand -16.4801 -38.4454
rfingers 7.12502
rthumb 9.73695 -68.2003
lclavicle -5.50385e-015 -3.97569e-015
lhumerus -33.8154 3.72939 86.6356
lradius 30.0325
lwrist 2.22069
lhand -21.1545 -17.0357
lfingers 7.12502
lthumb 5.22518 12.8799
rfemur -34.7441 -0.567493 24.7841
rtibia 36.4929
rfoot -20.5626 3.80152
rtoes -11.0434
lfemur -35.9036 3.37561 -18.5247
ltibia 72.8457
lfoot -1.39766 2.35596
ltoes -6.00138
73
root -0.192971 16.4798 -26.8978 17.2486 4.38877 -0.640304
lowerback -14.5109 -1.02521 1.10277
upperback -5.14864 -1.60414 2.77282
thorax 2.74555 -0.783134 2.01315
lowerneck -3.87504 -1.18291 0.371928
upperneck 8.505 -1.28971 -3.78301
head 3.39951 -0.776414 -1.35884
rclavicle -1.4561e-014 -1.35174e-014
rhumerus -43.3064 -29.8145 -65.7506
rradius 18.5594
rwrist 10.3915
rhand -15.7271 -37.5065
rfingers 7.12502
rthumb 10.4635 -67.2261
lclavicle -1.4561e-014 -1.35174e-014
lhumerus -34.6499 4.13253 86.4954
lradius 28.5364
lwrist 1.17274
lhand -21.6378 -17.0889
lfingers 7.12502
lthumb 4.75855 12.8377
rfemur -33.7704 -0.872291 24.6379
rtibia 36.1973
rfoot -21.1443 4.02991
rtoes -10.8444
lfemur -37.2373 3.31715 -18.9327
ltibia 72.2736
lfoot -2.54346 2.85997
ltoes -3.15654
